<?xml version="1.0" standalone="no"?>
<!DOCTYPE svg PUBLIC "-//W3C//DTD SVG 20010904//EN"
 "http://www.w3.org/TR/2001/REC-SVG-20010904/DTD/svg10.dtd">
<svg version="1.0" xmlns="http://www.w3.org/2000/svg"
 width="1024.000000pt" height="1024.000000pt" viewBox="0 0 1024.000000 1024.000000"
 preserveAspectRatio="xMidYMid meet">

<g transform="translate(0.000000,1024.000000) scale(0.100000,-0.100000)"
fill="#000000" stroke="none">
<path d="M0 5120 l0 -5120 5120 0 5120 0 0 5120 0 5120 -5120 0 -5120 0 0
-5120z m5840 4055 c351 -35 705 -121 985 -240 50 -22 93 -44 97 -49 4 -6 17
-12 29 -12 19 -1 176 -71 189 -84 3 -3 30 -18 61 -33 145 -72 406 -250 609
-416 126 -102 358 -332 461 -456 97 -117 252 -336 334 -469 224 -366 400 -829
480 -1261 9 -49 20 -110 25 -135 8 -37 6 -47 -7 -57 -16 -12 -16 -13 0 -13 12
0 17 -8 17 -25 0 -20 -6 -27 -30 -32 -45 -8 -44 -19 1 -15 36 4 39 2 39 -22 0
-24 -4 -26 -42 -28 l-43 -1 40 -4 c41 -5 55 -16 55 -45 0 -12 -8 -16 -30 -16
-17 1 -33 -2 -37 -5 -3 -4 10 -7 30 -7 33 0 37 -3 37 -24 0 -22 -6 -26 -47
-31 -88 -12 -105 -26 -26 -21 58 4 72 2 77 -11 9 -23 0 -30 -54 -37 -27 -4
-50 -12 -50 -18 0 -7 18 -9 55 -4 53 6 55 5 55 -17 0 -22 -7 -25 -102 -42
-113 -21 -94 -32 30 -17 70 8 72 8 72 -14 0 -18 -7 -23 -47 -28 -64 -9 -185
-38 -179 -43 2 -2 41 1 87 7 127 15 139 14 139 -13 0 -21 -5 -24 -42 -25 -50
-2 -178 -33 -178 -44 0 -7 30 -4 129 13 82 14 91 12 91 -15 0 -21 -5 -24 -62
-30 -35 -4 -88 -13 -118 -21 -54 -14 -54 -14 63 -9 l119 6 -4 -24 c-3 -21 -9
-24 -88 -30 -47 -4 -105 -14 -130 -22 -42 -13 -38 -14 88 -9 128 6 132 5 132
-14 0 -19 -8 -21 -84 -28 -46 -3 -101 -13 -122 -21 -36 -13 -30 -14 79 -8
l119 7 -4 -24 c-3 -22 -8 -24 -84 -31 -74 -6 -164 -24 -164 -32 0 -2 56 -1
125 2 110 4 125 3 125 -11 0 -23 -7 -25 -111 -37 -133 -15 -162 -21 -151 -32
5 -5 57 -6 131 -1 119 8 122 8 119 -12 -3 -18 -15 -21 -108 -33 -98 -11 -246
-49 -236 -59 3 -3 27 0 53 6 27 5 92 13 144 16 52 3 104 8 117 11 20 4 23 1
20 -18 -4 -27 -43 -37 -160 -37 -43 -1 -78 -5 -78 -11 0 -5 -7 -7 -16 -3 -9 3
-20 0 -25 -8 -12 -20 -11 -29 4 -24 6 2 70 6 140 10 125 6 128 6 118 -13 -9
-16 -26 -21 -91 -27 -44 -4 -83 -11 -86 -16 -3 -5 -17 -9 -32 -10 -15 0 -36
-5 -47 -10 -13 -6 27 -7 113 -3 112 5 132 4 132 -9 0 -26 -23 -34 -115 -40
-91 -6 -195 -32 -195 -50 0 -5 8 -6 18 -2 15 6 206 24 255 25 13 0 18 -6 15
-22 -3 -22 -9 -23 -96 -28 -67 -4 -95 -9 -102 -20 -12 -19 -6 -36 11 -31 8 3
49 6 92 9 73 4 79 3 75 -14 -3 -16 -16 -20 -75 -25 -77 -7 -173 -35 -173 -50
0 -11 7 -11 28 0 9 4 59 11 110 15 86 5 92 5 92 -13 0 -16 -9 -21 -47 -26
-173 -21 -213 -35 -213 -73 0 -10 6 -7 18 7 15 19 31 23 120 28 91 5 102 4
102 -11 0 -9 -6 -19 -12 -21 -13 -5 -170 -25 -220 -28 -31 -2 -50 -17 -22 -18
10 0 68 0 127 1 104 1 108 1 98 -18 -8 -16 -26 -20 -101 -26 -97 -7 -120 -13
-120 -28 0 -5 41 -8 100 -6 96 3 101 2 98 -17 -2 -15 -12 -21 -38 -22 -190
-14 -200 -15 -200 -30 0 -12 18 -14 110 -11 61 2 110 1 110 -2 -1 -20 -28 -28
-117 -34 -98 -7 -163 -20 -163 -35 0 -6 57 -5 203 2 48 2 51 0 41 -27 -5 -13
-24 -16 -98 -16 -85 -1 -176 -16 -193 -33 -4 -4 58 -5 137 -2 142 6 144 6 127
-13 -9 -10 -23 -19 -30 -19 -24 0 -173 -14 -214 -19 -79 -11 -32 -25 77 -23
59 1 113 -2 119 -5 6 -4 11 -2 11 3 0 6 5 11 10 11 7 0 7 -6 1 -19 -9 -15 -27
-19 -119 -25 -103 -7 -145 -17 -125 -29 15 -9 92 -10 156 -2 32 5 57 4 56 -1
0 -5 -13 -36 -29 -69 -24 -51 -29 -56 -29 -32 -1 27 -2 27 -28 13 -46 -23 -94
-30 -104 -15 -6 10 -9 8 -9 -9 0 -18 -3 -21 -16 -14 -10 6 -29 5 -48 -1 -17
-5 -37 -11 -43 -13 -7 -2 -13 -10 -13 -18 0 -12 5 -13 31 -4 39 13 47 4 27
-30 -8 -15 -13 -33 -10 -41 3 -10 0 -12 -12 -8 -10 4 -16 1 -16 -7 0 -7 -11
-23 -25 -36 -14 -13 -25 -29 -25 -36 0 -7 -6 -17 -13 -21 -8 -4 -22 -21 -32
-38 -24 -38 -70 -91 -154 -180 -37 -38 -94 -101 -127 -139 -47 -55 -205 -215
-268 -271 -148 -134 -282 -244 -361 -297 -227 -154 -310 -216 -313 -232 -3
-12 1 -17 10 -14 7 3 13 10 13 16 0 6 7 17 15 24 12 11 12 11 1 -4 -7 -10 -11
-18 -7 -18 10 0 207 131 226 150 31 31 124 102 145 110 38 16 400 330 465 404
14 16 39 43 55 61 84 90 135 146 180 199 28 33 55 64 60 70 6 6 22 27 35 46
33 47 49 67 88 107 17 19 32 39 32 43 0 5 8 15 18 22 10 7 28 28 41 46 22 31
51 43 51 21 0 -6 -12 -26 -27 -43 -16 -18 -44 -52 -63 -76 -19 -23 -62 -75
-95 -115 -33 -40 -87 -105 -120 -145 -77 -94 -156 -183 -169 -192 -6 -4 -7
-10 -3 -14 8 -8 -11 -34 -25 -34 -5 0 -6 6 -2 13 4 7 3 9 -2 4 -5 -5 -9 -12
-9 -17 0 -8 -121 -129 -181 -180 -141 -123 -401 -323 -576 -445 -76 -53 -138
-101 -138 -106 0 -5 -4 -9 -10 -9 -5 0 -10 12 -10 28 0 15 -13 50 -28 77 -21
38 -39 57 -79 78 -45 24 -53 33 -58 65 -21 124 -87 184 -250 227 -76 19 -249
20 -378 0 -96 -14 -100 -14 -160 7 -49 18 -84 23 -167 23 -126 0 -150 -10
-256 -109 l-71 -65 -34 25 c-18 13 -37 31 -42 40 -22 39 53 276 148 466 49 97
66 124 183 287 110 153 131 205 147 358 14 132 25 175 52 205 15 16 41 18 262
18 284 1 372 12 468 61 69 35 110 75 145 142 22 40 23 51 21 235 -3 181 -2
195 19 235 15 30 23 70 28 137 4 57 16 118 29 152 18 48 21 79 21 192 0 178 3
191 54 221 55 33 122 102 141 147 33 81 18 133 -77 265 -67 93 -148 240 -148
267 0 9 15 37 34 63 68 97 95 171 98 270 l1 59 161 1 c241 1 427 47 576 144
120 78 204 179 248 300 52 144 31 359 -50 511 -46 87 -91 133 -164 169 -60 30
-77 33 -197 40 -73 4 -168 12 -211 18 -71 10 -479 30 -616 31 l-55 0 -90 111
c-49 60 -129 148 -177 195 -49 48 -88 93 -88 104 0 10 -9 21 -19 25 -11 3 -60
46 -110 95 -80 79 -103 95 -203 143 -62 30 -153 69 -203 86 -49 18 -101 36
-115 41 -75 27 -185 51 -261 57 -97 7 -174 -3 -428 -53 -104 -20 -205 -34
-250 -34 -134 0 -271 -41 -356 -106 -25 -19 -59 -30 -117 -40 -115 -20 -192
-60 -285 -148 -61 -57 -100 -84 -167 -115 -215 -99 -381 -251 -473 -435 -50
-99 -115 -303 -157 -491 -48 -217 -59 -314 -46 -406 13 -94 93 -426 131 -545
36 -112 36 -127 3 -153 -33 -26 -47 -26 -94 0 -37 21 -60 54 -60 85 0 9 -5 12
-11 8 -8 -4 -9 -24 -4 -58 4 -28 8 -79 10 -113 4 -70 24 -112 66 -137 l29 -17
-21 -41 c-39 -76 -22 -197 31 -231 27 -16 25 -24 -10 -42 -41 -21 -78 -4 -105
50 l-20 40 -3 -42 c-6 -76 45 -143 108 -143 16 0 20 -6 20 -34 0 -48 16 -86
53 -124 30 -31 31 -35 28 -108 l-3 -76 46 -44 c26 -24 55 -44 66 -44 12 0 23
-6 25 -12 5 -13 -47 -264 -56 -272 -2 -3 -31 2 -64 10 -33 7 -127 25 -210 38
-433 72 -719 76 -1145 16 -225 -32 -454 -58 -462 -53 -5 2 -8 13 -8 24 0 17 7
19 58 19 31 1 104 9 162 19 l105 19 -170 3 c-147 4 -170 6 -173 20 -3 14 18
17 170 24 l173 8 -60 13 c-33 7 -91 13 -128 14 -51 0 -69 4 -74 15 -3 9 -3 18
-1 20 7 7 67 14 148 15 71 2 73 3 35 12 -22 5 -94 12 -160 16 -103 6 -120 9
-123 25 -3 16 10 17 150 18 151 1 152 1 98 15 -30 8 -101 17 -158 20 -97 7
-102 8 -102 29 0 21 3 22 63 19 34 -2 100 -5 147 -8 84 -4 84 -4 45 11 -22 7
-89 19 -150 26 -104 12 -110 14 -113 36 -4 23 -2 23 50 18 29 -4 94 -9 143
-12 l90 -5 -45 15 c-25 8 -89 21 -143 27 -82 11 -97 15 -97 30 0 21 12 22 149
7 54 -6 110 -9 123 -7 31 5 -107 35 -199 44 -64 6 -73 9 -73 27 0 19 4 20 102
13 57 -4 120 -10 141 -13 45 -7 51 12 7 21 -17 3 -80 11 -140 18 -108 12 -110
12 -110 38 l0 25 127 -16 c71 -8 135 -13 143 -10 8 3 -12 9 -45 12 -33 3 -72
10 -86 16 -14 6 -51 14 -81 18 -53 7 -76 23 -64 44 3 4 43 2 90 -4 47 -7 86
-8 86 -4 0 10 -55 25 -122 34 -41 6 -48 11 -48 30 0 21 3 21 48 14 63 -10 82
-10 57 2 -14 6 -1 7 40 4 44 -4 53 -2 32 4 -15 5 -61 12 -102 16 -66 7 -75 10
-75 28 0 19 5 20 103 15 l102 -5 -103 20 c-100 19 -102 20 -99 46 3 23 7 25
48 23 33 -1 39 1 24 8 -11 5 -30 9 -42 9 -19 1 -23 7 -23 32 0 24 4 29 18 25
39 -11 87 -18 81 -12 -3 4 -26 12 -50 19 -33 10 -44 18 -44 32 0 16 9 21 45
26 l45 6 -42 1 c-39 2 -43 5 -43 27 0 13 8 29 18 34 10 7 12 11 4 11 -9 0 -12
10 -10 28 2 15 8 26 16 24 10 -2 10 2 0 17 -27 44 88 520 193 796 62 162 191
428 274 565 170 281 347 509 569 734 249 252 465 422 771 607 478 289 968 451
1535 508 146 14 552 12 720 -4z m-16 -700 c152 -32 541 -185 533 -209 -2 -5
-10 -14 -19 -20 -13 -7 -29 0 -72 32 -77 58 -91 63 -82 28 4 -15 4 -36 1 -46
-5 -17 -8 -18 -42 -4 -19 8 -37 13 -39 11 -2 -2 35 -45 82 -95 91 -97 87 -103
-26 -38 -56 32 -62 32 -54 2 5 -23 3 -24 -73 -31 l-78 -7 53 -47 c28 -25 52
-50 52 -55 0 -5 -7 -18 -16 -28 -14 -14 -14 -18 -3 -22 18 -6 236 -75 269 -85
20 -6 26 -15 28 -48 l3 -40 85 44 85 44 19 -23 c10 -13 28 -44 40 -69 20 -41
25 -45 51 -41 16 2 29 7 29 10 0 3 -22 31 -50 63 -27 32 -50 60 -50 64 0 4 34
5 75 3 41 -2 75 -1 75 1 0 3 -12 17 -27 33 -23 24 -25 31 -15 53 11 24 32 35
32 17 0 -5 43 -60 95 -123 52 -63 95 -116 95 -120 0 -3 -19 -6 -42 -7 -109 -6
-302 -55 -688 -172 -158 -48 -305 -88 -352 -95 -35 -5 -54 -2 -98 19 -30 15
-44 24 -30 21 69 -15 134 -24 142 -19 8 5 -52 48 -167 119 -33 20 -49 33 -35
29 36 -10 157 -72 165 -84 3 -5 11 -10 17 -10 16 0 -35 44 -115 100 -40 27
-85 61 -102 76 l-30 27 35 -22 c45 -28 190 -102 190 -98 0 2 -54 44 -120 92
-66 49 -118 90 -116 92 4 4 71 -32 136 -72 56 -35 60 -36 60 -30 0 3 -70 57
-155 120 -85 64 -155 118 -155 121 0 4 10 0 23 -8 12 -9 54 -34 92 -58 39 -23
90 -56 115 -73 37 -25 41 -26 25 -8 -25 29 -190 153 -230 174 -17 8 -39 25
-50 38 -11 13 -13 18 -5 12 8 -6 50 -30 94 -52 43 -23 90 -49 105 -59 52 -37
55 -35 11 6 -25 22 -91 68 -146 102 -56 33 -108 68 -115 77 -13 17 -12 17 11
2 14 -9 57 -33 95 -52 39 -20 90 -48 114 -63 24 -15 41 -22 38 -17 -9 14 -188
133 -252 169 -27 15 -66 39 -85 53 -19 15 -55 40 -80 56 l-45 28 60 -64 c60
-65 160 -218 205 -314 27 -59 82 -216 77 -221 -2 -2 -19 35 -37 83 -38 101
-105 232 -163 318 -60 90 -190 214 -287 273 -94 58 -99 54 55 57 46 1 167 19
285 43 113 22 216 43 230 45 58 10 200 6 264 -8z m-842 -169 c97 -72 163 -140
226 -230 61 -85 204 -380 245 -506 52 -154 54 -194 4 -55 -144 401 -321 669
-536 813 -43 28 -57 42 -44 42 12 0 59 -29 105 -64z m-119 19 c61 -35 160
-122 204 -180 67 -85 59 -83 -26 8 -91 95 -207 175 -238 162 -15 -6 -3 -21 67
-87 l85 -81 -91 62 c-85 58 -122 71 -131 46 -2 -6 9 -18 24 -28 16 -9 48 -35
73 -58 41 -38 42 -39 10 -20 -49 30 -139 71 -158 71 -8 0 3 -13 24 -29 82 -62
90 -73 32 -41 -62 34 -118 53 -118 40 0 -5 17 -23 38 -41 21 -18 28 -28 17
-24 -96 35 -151 53 -154 50 -3 -3 51 -53 88 -82 25 -19 11 -16 -63 16 -95 40
-114 30 -52 -26 26 -24 46 -43 43 -43 -3 0 -27 9 -53 20 -26 12 -61 20 -78 18
-30 -3 -30 -3 27 -42 62 -43 73 -55 28 -32 -36 19 -104 31 -127 22 -14 -5 -13
-9 7 -25 13 -10 38 -25 54 -34 38 -21 20 -21 -35 -2 -23 8 -54 15 -67 15 -24
0 -25 -1 -9 -24 15 -24 15 -24 -13 -16 -29 8 -30 7 -51 -51 -24 -62 -34 -76
-25 -34 3 14 8 37 11 52 4 22 3 25 -9 14 -16 -12 -49 -90 -66 -151 -8 -32 -9
-28 -11 35 l-1 70 -27 -65 -27 -64 -5 52 -5 53 -34 -76 c-18 -42 -36 -74 -38
-71 -2 2 2 27 11 55 8 28 13 51 11 51 -8 0 -47 -84 -76 -165 -16 -44 -27 -64
-24 -45 14 85 39 178 56 208 28 48 8 36 -51 -31 -83 -96 -112 -166 -136 -332
l-13 -90 2 82 c1 45 -1 76 -4 70 -11 -20 -56 -187 -69 -252 -6 -33 -14 -68
-16 -78 -5 -15 -1 -17 22 -11 19 5 25 4 20 -5 -4 -6 -17 -11 -29 -12 -15 0
-10 -4 16 -12 l38 -12 -46 -18 c-25 -11 -45 -23 -45 -28 0 -5 19 -9 43 -10 23
0 35 -3 27 -6 -23 -8 -90 -55 -90 -63 0 -4 24 -6 53 -4 43 3 47 2 23 -5 -38
-13 -96 -53 -96 -67 0 -9 11 -9 38 -3 60 14 70 10 26 -10 -39 -18 -90 -69 -79
-79 3 -3 24 5 48 18 l42 23 -42 -44 c-47 -49 -55 -66 -22 -49 29 16 36 4 14
-20 -10 -12 -19 -29 -20 -40 -1 -15 2 -17 17 -9 10 5 23 7 28 4 5 -3 11 -1 15
5 3 5 11 10 17 10 6 0 -6 -18 -27 -41 -44 -49 -40 -61 8 -25 49 38 53 32 12
-20 -43 -58 -44 -69 -4 -49 42 22 45 14 9 -20 -38 -36 -39 -51 -2 -31 15 8 43
23 62 32 32 15 31 13 -17 -30 -29 -27 -53 -54 -53 -62 0 -18 3 -18 51 6 l40
21 -41 -41 c-22 -22 -40 -49 -40 -61 0 -21 0 -21 38 2 l37 23 -32 -37 c-46
-53 -41 -60 12 -18 19 15 18 14 -1 -9 -39 -47 -37 -55 4 -16 63 61 59 38 -7
-35 l-59 -64 -21 70 c-101 320 -127 500 -97 666 51 277 134 540 213 671 91
152 207 251 408 347 78 38 119 66 188 130 75 68 98 84 154 101 36 11 81 20 99
20 33 0 126 41 169 74 25 19 19 20 68 -9z m1599 -181 l-9 -39 -32 65 c-41 86
-39 99 9 52 39 -37 40 -40 32 -78z m-947 -334 c3 -6 -1 -7 -9 -4 -18 7 -21 14
-7 14 6 0 13 -4 16 -10z m2079 -199 l79 -6 -94 -34 c-52 -18 -161 -63 -244
-99 -82 -35 -186 -80 -230 -99 -133 -58 -292 -112 -434 -148 -74 -19 -137 -33
-139 -31 -2 2 56 23 130 46 73 23 151 50 173 60 22 10 64 28 93 40 54 23 67
39 16 20 -15 -6 -105 -31 -199 -55 -93 -24 -197 -51 -230 -60 -72 -19 -293
-65 -309 -64 -6 0 70 22 169 49 99 26 248 69 330 93 83 25 176 53 209 62 32 9
56 18 53 21 -4 4 -54 -7 -362 -81 -169 -41 -464 -105 -477 -104 -21 1 68 27
236 69 88 22 189 49 225 59 37 11 84 22 106 26 74 12 176 37 172 41 -3 3 -33
-2 -68 -10 -35 -7 -89 -17 -119 -21 -69 -8 -425 -87 -545 -119 -49 -14 -91
-24 -93 -22 -4 5 157 55 323 100 143 40 255 75 240 75 -37 2 -281 -54 -523
-121 -101 -27 -186 -48 -188 -45 -3 2 8 8 23 11 33 8 321 98 506 158 70 23
125 43 122 46 -2 3 -42 -6 -87 -20 -46 -14 -114 -33 -153 -42 -38 -9 -173 -43
-300 -75 -126 -33 -231 -58 -233 -56 -3 3 142 48 228 70 108 28 423 134 460
156 40 23 35 22 -120 -25 -176 -54 -514 -146 -518 -141 -2 2 16 9 39 15 24 7
164 51 310 100 544 180 551 182 1004 174 187 -4 376 -9 419 -13z m398 -41
c120 -34 205 -181 222 -385 4 -54 3 -51 -14 30 -37 183 -91 282 -173 320 -43
21 -68 25 -142 25 -49 0 -117 -7 -150 -14 -70 -17 -87 -13 -24 5 98 28 220 36
281 19z m-967 -709 c44 -21 86 -45 94 -55 14 -16 12 -17 -25 -12 -41 7 -38 4
36 -29 l35 -15 -55 5 c-59 5 -51 -8 12 -19 22 -4 42 -15 48 -26 9 -17 41 -222
40 -254 -1 -6 -8 5 -17 24 l-16 35 -7 -35 c-4 -19 -8 -28 -9 -19 0 9 -11 24
-23 35 -21 19 -21 19 -16 -3 7 -27 0 -29 -18 -5 -13 16 -14 15 -20 -6 -5 -18
-9 -20 -15 -10 -6 9 -9 6 -9 -10 0 -13 -4 -21 -9 -18 -4 3 -22 -16 -39 -42
-46 -72 -43 -87 90 -347 53 -104 122 -224 152 -265 62 -84 73 -115 56 -164
-25 -76 -145 -143 -230 -130 -33 5 -39 3 -45 -15 -7 -23 4 -131 13 -131 3 0
21 14 39 32 l33 32 0 -121 c0 -67 3 -128 6 -137 5 -13 -1 -16 -28 -16 -19 0
-39 -5 -45 -11 -8 -8 -19 -5 -41 11 -44 33 -106 23 -280 -41 -126 -47 -192
-84 -192 -108 0 -3 20 -5 45 -3 25 2 66 -3 92 -12 57 -20 58 -20 43 -1 -21 25
5 17 30 -10 29 -31 37 -26 15 9 -23 34 -2 34 24 0 23 -30 26 -27 11 11 -9 23
-8 26 7 21 10 -2 60 -10 112 -17 121 -16 144 -38 131 -129 -4 -31 -20 -33
-139 -16 -66 10 -126 16 -133 13 -7 -2 12 -16 42 -31 30 -15 70 -35 88 -46
l34 -18 -59 -7 c-85 -10 -86 -12 -5 -20 39 -4 72 -12 72 -16 0 -5 -35 -9 -77
-9 -91 -1 -81 -14 17 -25 112 -13 106 -5 120 -154 11 -118 11 -136 -4 -175 -9
-24 -28 -54 -43 -67 -25 -23 -25 -23 -14 -2 6 12 11 37 10 55 0 31 -1 31 -15
-14 -8 -27 -17 -48 -19 -48 -3 0 -13 17 -24 38 -11 21 -27 44 -35 51 -15 12
-15 10 -1 -22 8 -20 15 -47 15 -59 0 -22 0 -22 -17 2 -22 34 -75 90 -85 90 -4
0 4 -16 17 -36 40 -59 32 -79 -14 -33 -21 22 -44 39 -51 39 -10 0 -10 -3 0
-15 16 -19 22 -20 -100 19 -192 62 -369 142 -533 238 -116 70 -83 59 86 -26
89 -46 196 -94 237 -108 41 -13 84 -28 95 -33 42 -17 5 6 -135 84 -80 45 -141
81 -137 81 4 0 46 -17 94 -38 185 -82 215 -94 219 -90 2 3 -82 47 -186 99
-105 51 -187 95 -182 97 9 3 158 -57 275 -112 42 -19 77 -34 77 -32 0 7 -110
66 -308 166 -100 52 -181 95 -179 96 3 3 127 -44 271 -102 138 -56 40 6 -165
104 -122 58 -250 143 -339 223 l-45 41 60 -44 c136 -99 196 -139 242 -160 57
-25 269 -89 256 -78 -4 5 -55 30 -113 56 -135 62 -271 151 -387 253 -51 45
-93 85 -93 88 0 3 8 -1 18 -9 162 -137 291 -219 420 -264 59 -20 125 -46 147
-56 77 -36 3 11 -97 62 -200 102 -316 182 -448 309 -86 83 -75 84 20 1 87 -76
231 -170 305 -200 33 -13 86 -36 117 -52 32 -15 60 -28 64 -28 12 0 -40 36
-101 70 -90 51 -231 146 -312 212 -74 60 -113 102 -52 56 19 -14 63 -43 99
-64 36 -20 67 -41 70 -45 5 -7 46 -27 200 -96 30 -13 51 -20 45 -15 -12 11
-234 159 -285 190 -19 11 -60 47 -90 78 -30 32 -41 47 -25 35 99 -72 153 -105
265 -161 135 -67 140 -67 40 2 -148 102 -237 169 -275 209 l-40 43 47 -37 c65
-52 165 -112 256 -153 42 -19 74 -33 72 -30 -3 2 -50 37 -105 78 -55 41 -127
100 -160 132 l-60 58 80 -60 c44 -33 100 -71 125 -84 129 -72 180 -99 180 -95
0 2 -26 21 -57 42 -78 52 -233 168 -229 172 3 4 246 -134 260 -148 6 -5 15 -9
20 -9 16 1 -25 31 -159 120 -174 116 -175 119 -12 35 81 -41 147 -72 147 -67
0 4 -63 49 -140 101 -77 51 -143 98 -147 104 -4 6 9 1 28 -10 62 -38 231 -124
236 -119 2 2 -35 30 -84 62 -116 76 -213 147 -208 152 2 2 25 -10 51 -27 53
-37 187 -105 224 -115 16 -5 9 2 -17 17 -91 54 -252 169 -316 226 -73 66 -82
83 -14 27 86 -70 376 -246 405 -246 3 0 -30 24 -74 53 -196 131 -326 227 -414
305 -125 111 -138 126 -62 66 122 -95 316 -227 492 -333 50 -30 2 9 -110 89
-214 153 -431 328 -494 399 -33 36 -5 23 44 -21 88 -80 175 -146 316 -240 165
-111 164 -110 164 -105 0 2 -73 59 -162 125 -140 104 -418 354 -418 376 0 9
141 -114 220 -192 36 -35 74 -68 85 -74 11 -6 -9 16 -45 50 -76 70 -77 92 -2
27 29 -24 67 -54 85 -66 34 -23 -10 20 -189 186 -60 55 -127 120 -149 145
l-40 45 50 -43 c28 -23 93 -76 145 -117 52 -42 120 -96 150 -121 102 -84 88
-64 -49 70 -226 219 -238 232 -211 210 14 -12 64 -46 111 -77 48 -30 90 -60
93 -66 4 -6 11 -9 16 -6 5 3 19 1 31 -5 42 -23 28 -2 -23 33 -29 20 -91 73
-138 118 -47 44 -68 67 -47 50 84 -69 279 -191 304 -191 4 0 -11 13 -35 29
-54 36 -205 172 -198 178 3 3 23 -10 45 -28 41 -36 132 -93 166 -105 11 -4 -2
11 -30 33 -27 22 -70 59 -95 82 l-45 42 66 -40 c68 -42 138 -75 145 -68 2 2
-28 25 -66 51 -90 62 -99 76 -21 36 49 -26 171 -65 171 -55 0 2 -28 17 -62 33
-35 16 -72 37 -83 47 l-20 17 20 -7 c11 -4 49 -18 84 -31 98 -37 89 -21 -21
36 -73 38 -48 36 50 -4 125 -50 142 -45 42 14 -93 55 -99 63 -18 26 61 -28
138 -50 146 -42 3 3 -10 12 -29 20 -44 19 -98 56 -82 56 7 0 42 -11 79 -25 75
-28 74 -28 74 -16 0 5 -29 24 -64 42 -36 19 -63 35 -62 36 2 2 36 -11 77 -28
107 -44 120 -46 65 -5 -66 48 -68 51 -21 31 22 -10 76 -26 120 -37 44 -11 105
-26 135 -35 l55 -16 -90 -19 c-179 -36 -287 -85 -415 -188 l-25 -20 31 0 c17
0 45 7 63 16 31 15 33 15 79 -14 26 -17 69 -37 95 -46 56 -19 207 -22 207 -5
0 6 7 9 15 5 21 -8 20 27 -2 62 -9 15 -13 23 -7 18 5 -4 40 -35 77 -69 41 -37
65 -67 62 -75 -5 -14 229 -248 304 -302 22 -17 41 -33 41 -36 0 -18 -84 51
-224 183 -89 84 -165 153 -169 153 -15 0 66 -90 167 -188 94 -91 95 -93 70
-102 -52 -20 -125 -53 -122 -55 4 -4 127 29 151 40 13 5 24 2 35 -9 16 -16 16
-17 -1 -10 -9 3 -33 -1 -53 -11 -19 -9 -52 -22 -72 -30 -54 -20 -27 -18 56 4
40 10 72 16 72 12 -1 -3 -39 -24 -85 -45 -47 -22 -84 -40 -82 -42 1 -1 27 6
57 16 64 23 115 26 55 4 -151 -55 -182 -243 -51 -311 36 -19 182 -31 172 -15
-4 8 3 16 18 22 43 16 30 30 -28 30 -118 0 -93 67 47 124 l58 23 -73 7 c-57 6
-69 10 -54 18 10 6 34 8 52 5 46 -8 33 10 -14 20 l-37 7 40 7 c22 4 73 8 113
8 73 1 99 16 40 24 -22 2 -15 4 22 6 53 2 54 2 30 16 -22 13 -23 14 -5 15 17
1 16 3 -7 16 -30 16 -38 27 -13 18 32 -13 11 7 -92 85 -127 95 -192 151 -177
151 6 0 44 -28 85 -63 70 -60 221 -167 189 -134 -79 81 -230 208 -295 247 -44
27 -91 61 -105 76 -25 28 -25 28 15 -3 22 -17 60 -41 85 -53 54 -28 142 -94
190 -145 49 -51 85 -68 40 -19 -99 110 -133 141 -223 201 -53 36 -100 69 -103
74 -5 9 134 -74 201 -120 104 -72 82 -44 -48 61 -138 110 -145 118 -52 61 44
-27 86 -53 93 -57 6 -4 12 -3 12 2 0 5 -36 38 -80 73 -44 34 -80 64 -80 66 0
5 129 -65 149 -81 41 -30 -7 20 -62 66 -34 29 -53 48 -42 44 58 -23 77 -28 83
-21 4 4 1 10 -5 12 -7 3 -23 13 -35 24 l-23 19 35 -7 c37 -6 33 11 -5 20 -14
3 -12 5 10 7 l30 2 -35 13 -35 13 38 1 c43 1 42 16 -3 26 -33 7 -32 25 1 25
11 0 17 4 14 10 -3 5 1 20 10 33 9 14 20 40 25 58 l10 34 -20 -25 -19 -25 5
25 c5 21 4 22 -6 8 -6 -10 -15 -18 -20 -18 -6 0 -10 8 -11 18 0 13 -2 12 -9
-5 -5 -13 -13 -23 -18 -23 -5 0 -7 10 -5 23 4 20 0 22 -34 23 -21 1 -157 18
-303 38 -259 36 -430 69 -460 88 -12 7 -11 8 4 3 70 -22 386 -67 556 -79 l65
-5 -50 14 c-27 7 -61 14 -75 14 -39 2 -430 88 -475 105 -46 17 -38 20 20 6
140 -32 438 -71 424 -56 -4 4 -57 18 -118 32 -110 25 -223 60 -156 49 17 -2
89 -14 160 -25 72 -11 139 -23 150 -26 41 -10 -30 25 -92 46 -35 12 -63 24
-63 26 0 6 38 -3 136 -32 111 -33 131 -29 54 11 -36 19 -60 34 -54 35 6 0 61
-16 123 -36 62 -19 118 -33 124 -30 7 3 6 5 -3 5 -20 1 -124 50 -119 56 3 2
50 -9 104 -25 55 -15 101 -27 103 -25 2 2 -22 18 -54 35 -63 33 -59 33 51 0
112 -35 114 -34 30 14 -84 48 -84 62 0 23 28 -13 64 -27 80 -31 17 -4 39 -9
50 -12 11 -4 -9 15 -45 41 -73 53 -56 52 65 -4z m10 29 c10 -11 16 -20 13 -20
-3 0 -13 9 -23 20 -10 11 -16 20 -13 20 3 0 13 -9 23 -20z m-2301 -24 c-85
-33 -134 -59 -189 -101 -26 -20 -45 -31 -43 -23 15 45 201 147 268 147 16 0 4
-8 -36 -23z m-389 -82 c-100 -52 -171 -160 -200 -304 -22 -106 -25 -107 -22
-5 5 143 63 246 169 299 55 27 104 37 53 10z m2055 -220 c0 -2 -9 0 -20 6 -11
6 -20 13 -20 16 0 2 9 0 20 -6 11 -6 20 -13 20 -16z m393 19 c-7 -2 -21 -2
-30 0 -10 3 -4 5 12 5 17 0 24 -2 18 -5z m-2758 -152 c-16 -10 -52 -31 -80
-46 -128 -73 -202 -190 -212 -334 -6 -84 7 -159 39 -226 l19 -40 -22 25 c-62
70 -91 196 -69 291 33 140 116 245 242 309 82 41 139 56 83 21z m122 -100
c-23 -32 -48 -67 -54 -77 -8 -11 -7 -2 2 20 9 22 21 46 28 55 12 15 60 60 64
61 2 0 -16 -26 -40 -59z m2293 -6 c0 -79 -6 -85 -69 -85 -71 0 -149 23 -210
61 -57 35 -38 38 29 4 27 -14 52 -25 56 -25 3 0 -6 16 -21 35 -21 29 -24 39
-15 50 19 22 25 19 45 -24 26 -58 56 -83 95 -79 42 4 72 43 72 93 0 26 3 34 9
24 5 -8 9 -32 9 -54z m-63 40 c1 -5 -1 -17 -7 -25 -7 -12 -12 -12 -29 4 -12
11 -21 23 -21 28 0 12 53 6 57 -7z m-2427 -83 c-59 -41 -95 -81 -122 -137 -29
-58 -29 -59 -23 -20 12 71 44 117 104 148 61 30 78 34 41 9z m2691 -59 c13
-17 13 -17 -6 -3 -11 8 -22 16 -24 17 -2 2 0 3 6 3 6 0 17 -8 24 -17z m217
-251 c56 -57 92 -98 80 -91 -13 6 -63 53 -113 104 -49 50 -116 110 -147 134
-80 58 -73 61 10 3 37 -26 113 -93 170 -150z m-2458 113 l29 15 -20 -35 c-48
-81 -14 -188 75 -240 48 -27 175 -55 252 -55 41 0 59 5 74 20 23 23 24 35 9
78 -17 51 -4 61 19 15 15 -29 22 -60 22 -102 0 -50 -4 -65 -27 -92 l-27 -32
25 8 c13 4 30 13 38 19 30 23 -8 -31 -40 -58 -35 -30 -15 -37 27 -10 34 23 38
13 12 -26 -36 -53 -89 -75 -183 -75 -73 0 -88 3 -155 37 -87 43 -165 108 -221
185 -43 57 -74 121 -65 131 3 3 6 1 6 -4 0 -6 7 -19 15 -30 14 -18 14 -17 5 9
-5 15 -8 27 -6 27 2 0 24 -35 48 -77 79 -135 177 -215 278 -228 41 -5 42 -4
16 6 -21 9 -25 14 -15 20 10 6 7 9 -11 9 -14 1 -41 10 -60 21 -19 11 -26 17
-15 13 11 -3 45 -8 75 -10 l55 -4 -65 25 -65 25 70 -5 c77 -5 74 2 -19 36
l-51 19 62 -2 c71 -3 92 6 36 16 -75 13 -165 49 -198 78 -65 57 -93 185 -58
264 15 34 18 36 21 17 3 -22 5 -22 32 -8z m-739 -94 c-22 -31 -94 -71 -128
-71 -11 0 -28 9 -38 20 -18 20 -18 20 14 14 39 -8 109 17 141 51 31 33 38 24
11 -14z m1135 -123 c6 -10 4 -10 -9 1 -9 7 -17 25 -16 40 l1 26 8 -27 c4 -14
11 -32 16 -40z m2280 -49 c3 -6 -5 -3 -20 6 -14 10 -26 19 -26 22 0 7 39 -17
46 -28z m-3454 -156 c12 -14 37 -34 53 -44 27 -17 28 -19 8 -19 -62 0 -123 53
-123 106 0 18 6 45 13 61 12 27 12 26 19 -26 4 -35 14 -61 30 -78z m161 -125
c-49 -22 -85 -22 -113 0 -21 17 -20 18 65 17 l86 0 -38 -17z m-144 -161 c22
-36 73 -80 113 -97 18 -8 15 -9 -17 -4 -52 8 -86 28 -113 69 -36 52 -46 102
-31 149 l13 41 6 -61 c4 -36 16 -76 29 -97z m1130 -411 c61 -99 133 -229 266
-482 40 -76 126 -224 215 -369 114 -185 137 -245 32 -82 -147 228 -266 437
-388 679 -37 73 -86 162 -109 198 -43 65 -99 170 -91 170 2 0 35 -51 75 -114z
m15 88 c3 -8 2 -12 -4 -9 -6 3 -10 10 -10 16 0 14 7 11 14 -7z m-880 -29 c44
-9 82 -18 85 -20 2 -3 -25 -5 -60 -5 -87 -1 -55 -20 46 -27 97 -8 86 -23 -16
-23 -43 0 -79 -4 -79 -9 0 -10 30 -17 118 -27 99 -11 73 -25 -33 -18 -61 5
-95 3 -95 -3 0 -5 44 -20 98 -32 131 -31 132 -32 15 -26 -57 3 -103 1 -103 -3
0 -5 37 -17 83 -26 114 -25 115 -27 7 -21 -112 6 -110 -5 5 -35 l80 -20 -95 5
c-93 6 -94 5 -65 -11 17 -10 50 -23 75 -30 45 -13 44 -13 -30 -8 -67 5 -73 4
-55 -9 11 -8 41 -22 68 -32 26 -10 46 -19 45 -21 -5 -4 -208 43 -215 50 -3 3
3 52 15 109 17 79 27 174 27 257 0 0 36 -7 79 -15z m941 -76 c22 -41 11 -36
-14 7 -12 19 -16 32 -11 29 6 -3 17 -19 25 -36z m-92 -66 c31 -49 78 -137 105
-198 70 -154 151 -297 340 -600 69 -110 154 -252 190 -315 109 -192 195 -340
198 -340 1 0 -15 53 -37 117 -21 64 -35 113 -29 107 5 -5 37 -61 71 -124 33
-63 58 -107 55 -97 -3 10 -13 43 -22 75 -19 67 -83 231 -97 250 -5 7 -8 15 -5
17 5 5 128 -213 148 -263 7 -18 14 -31 17 -29 8 8 -58 176 -106 270 -28 53
-49 97 -47 97 6 0 132 -201 165 -265 23 -42 30 -51 26 -30 -10 53 -73 175
-141 274 -39 56 -55 86 -39 71 37 -34 135 -171 201 -282 58 -96 63 -89 13 19
-37 82 -87 160 -152 236 -54 64 -112 144 -85 117 69 -68 253 -309 302 -395
l17 -30 -6 30 c-8 36 -80 182 -103 209 -9 11 -11 16 -5 12 19 -11 102 -122
135 -180 42 -73 28 -14 -20 85 -20 42 -32 75 -27 73 6 -3 32 -36 58 -75 27
-39 51 -69 53 -66 4 3 -23 74 -60 160 -9 20 -15 37 -13 37 2 0 25 -32 51 -71
26 -39 50 -69 52 -66 6 6 -32 103 -51 131 -8 11 -15 25 -15 30 0 11 67 -76 86
-112 l14 -27 0 25 c0 25 -26 84 -56 130 -9 14 -2 10 15 -10 18 -19 41 -48 53
-65 l20 -30 -5 35 c-3 19 -8 44 -12 55 -4 14 -2 12 9 -5 23 -38 20 -111 -8
-172 -13 -29 -54 -93 -91 -143 -85 -112 -190 -272 -200 -304 -6 -18 -9 -20
-16 -10 -6 10 -9 4 -9 -19 0 -20 -4 -31 -10 -27 -5 3 -10 17 -10 31 0 13 -4
24 -10 24 -5 0 -10 -14 -10 -32 0 -37 -9 -32 -21 14 -8 31 -8 31 -4 -7 3 -22
7 -56 10 -75 5 -33 4 -32 -25 20 l-30 55 4 -40 c3 -22 8 -65 11 -95 l5 -55
-21 50 c-11 27 -23 52 -26 55 -5 5 3 -98 12 -165 3 -16 -6 3 -19 43 -13 41
-27 77 -31 80 -4 4 -5 -38 -1 -93 8 -128 -2 -112 -54 85 -36 137 -59 204 -60
174 -1 -35 35 -188 61 -258 16 -44 25 -76 20 -71 -12 13 -77 174 -92 227 -5
22 -12 38 -15 35 -5 -5 21 -173 33 -211 8 -27 -109 99 -180 192 -31 42 -72
106 -91 142 -19 36 -83 140 -141 230 -59 91 -126 199 -148 240 -22 41 -53 93
-67 115 -36 53 -86 143 -73 130 25 -25 106 -139 164 -231 174 -277 218 -345
267 -414 30 -41 56 -77 60 -80 8 -7 -56 106 -93 165 -17 28 -85 142 -150 255
-65 113 -127 218 -138 234 -25 35 -107 186 -101 186 2 0 16 -19 30 -42 15 -24
51 -74 81 -113 30 -38 100 -144 156 -235 112 -180 165 -260 174 -260 3 0 -3
12 -13 27 -10 16 -50 84 -89 153 -40 69 -111 193 -159 275 -49 83 -96 164
-106 181 -9 17 -25 44 -35 60 l-18 29 30 -30 c32 -30 132 -169 205 -283 47
-73 63 -77 22 -5 -49 83 -181 291 -216 340 -19 27 -38 55 -42 63 -10 18 84
-77 137 -140 58 -68 19 -2 -66 112 -112 153 -113 158 -6 48 56 -58 98 -98 92
-90 -6 8 -57 78 -113 155 -56 77 -107 147 -113 155 -14 20 122 -126 147 -157
10 -13 21 -22 23 -19 3 3 -23 44 -58 93 -152 214 -153 218 -16 61 43 -48 77
-86 77 -83 0 3 -21 37 -46 76 -25 40 -48 79 -52 88 -3 9 -16 33 -30 55 -37 59
-7 32 38 -35 66 -97 64 -69 -3 41 -22 36 -51 81 -66 100 l-25 35 28 -25 c15
-14 48 -53 73 -87 25 -35 46 -63 48 -63 5 0 -26 65 -88 187 -26 51 -47 95 -47
99 0 10 65 -84 115 -166 25 -41 45 -70 45 -65 0 6 -31 72 -69 148 -38 75 -67
137 -66 137 2 0 28 -39 58 -87z m-2923 17 c0 -17 -7 -20 -40 -20 -33 0 -40 3
-40 20 0 17 7 20 40 20 33 0 40 -3 40 -20z m3093 -87 c24 -43 89 -161 144
-263 130 -241 124 -230 119 -230 -4 0 -63 104 -185 328 -32 59 -75 137 -95
175 -51 92 -38 85 17 -10z m-2096 -167 c45 -8 99 -17 121 -21 87 -13 219 -59
397 -139 44 -20 71 -29 60 -20 -32 25 -181 97 -288 140 -54 21 -93 40 -88 42
19 6 284 -89 414 -149 70 -32 167 -81 215 -109 52 -30 75 -40 57 -24 -110 94
-247 177 -391 235 -120 49 -82 44 126 -15 85 -24 156 -43 158 -42 1 2 -38 20
-88 41 -49 22 -88 41 -86 43 8 7 179 -39 273 -74 115 -42 239 -107 340 -176
161 -111 327 -312 403 -486 54 -125 58 -146 16 -84 -20 28 -38 52 -40 52 -2 0
12 -44 30 -97 38 -112 44 -158 14 -103 -25 46 -25 30 0 -22 33 -69 22 -77 -20
-13 -21 33 -50 74 -64 90 -25 29 -25 28 3 -25 38 -72 67 -145 75 -195 6 -34 1
-27 -36 46 -38 74 -98 163 -98 145 0 -3 20 -45 44 -93 38 -76 67 -165 66 -206
0 -7 -18 29 -38 79 -40 95 -65 139 -108 189 -19 23 -16 14 15 -45 55 -104 81
-188 80 -257 l-1 -58 -14 70 c-16 79 -70 191 -118 248 -31 37 -31 36 15 -60
49 -104 89 -230 88 -279 0 -20 -12 5 -37 76 -36 102 -90 209 -132 260 -11 14
0 -15 25 -64 45 -90 63 -143 85 -253 21 -103 5 -93 -25 16 -25 93 -99 260
-127 286 -5 6 -1 -8 10 -30 45 -91 135 -415 120 -430 -2 -3 -28 68 -56 158
-28 89 -58 171 -66 182 -14 18 -14 14 -1 -35 26 -99 75 -330 74 -353 0 -21 -1
-21 -11 3 -5 14 -29 102 -52 195 -39 153 -62 223 -71 213 -2 -1 3 -30 11 -63
38 -167 64 -326 63 -380 -1 -33 -4 -46 -6 -30 -17 133 -88 418 -116 467 -26
48 -31 43 -12 -11 31 -89 67 -306 70 -431 4 -118 3 -120 -5 -42 -12 109 -45
284 -71 369 -12 38 -41 104 -66 148 -53 91 -141 225 -149 225 -6 0 24 -51 68
-116 60 -90 99 -184 118 -286 32 -167 50 -314 49 -396 l-2 -77 -9 105 c-5 58
-20 159 -33 225 -49 243 -100 377 -169 444 l-33 32 24 -72 c32 -98 29 -112
-11 -54 -19 28 -57 73 -86 100 l-52 50 51 -68 c34 -45 57 -90 71 -135 30 -101
50 -235 49 -326 l-1 -81 -9 55 c-35 218 -62 292 -159 445 -136 214 -175 255
-360 369 -8 6 5 -12 29 -40 42 -48 88 -124 75 -124 -4 0 -25 18 -47 40 -40 42
-67 48 -30 7 11 -12 26 -33 33 -47 l13 -25 -29 25 c-28 25 -23 13 14 -32 7 -9
27 -44 43 -79 l29 -62 -65 69 -65 69 54 -74 c51 -69 112 -171 103 -171 -5 0
-161 189 -165 201 -2 5 -8 9 -13 9 -5 0 26 -53 69 -117 89 -134 114 -187 142
-305 28 -116 25 -164 -4 -58 -40 150 -125 320 -203 406 -38 43 -219 185 -329
260 -178 121 -464 243 -699 299 -123 29 -103 32 31 5 327 -65 626 -186 751
-303 35 -33 63 -56 63 -52 0 4 -25 37 -56 72 -107 121 -276 219 -517 299 -176
58 -187 68 -32 29 256 -66 415 -140 604 -282 l86 -65 -70 71 c-114 117 -257
208 -435 276 -73 29 -308 93 -390 108 -23 4 -22 4 5 6 80 3 338 -60 474 -116
124 -51 286 -140 351 -191 85 -69 89 -70 30 -8 -181 191 -525 333 -934 386
-235 31 -264 40 -111 34 236 -10 428 -48 720 -145 107 -35 179 -67 255 -111
114 -66 360 -243 449 -323 31 -27 47 -38 36 -25 -38 48 -131 129 -185 161 -30
18 -77 51 -105 74 -105 86 -250 172 -349 206 -34 12 -113 41 -176 65 -63 24
-155 56 -205 71 -112 33 -92 40 40 13 55 -11 137 -27 183 -35 45 -8 142 -37
214 -64 135 -51 181 -62 86 -21 -29 12 -75 32 -103 45 -52 23 -278 95 -301 95
-7 0 -61 15 -121 34 -59 18 -146 39 -193 45 -133 18 -141 20 -50 16 50 -3 122
-15 175 -30 50 -15 119 -33 155 -41 147 -33 278 -67 323 -84 26 -10 47 -16 47
-14 0 7 -76 42 -125 57 -96 30 -280 96 -269 96 7 1 49 -10 95 -23 46 -13 122
-33 168 -46 46 -12 91 -24 100 -27 9 -2 5 2 -9 11 -14 8 -76 31 -138 52 -62
20 -111 39 -109 41 2 2 39 -6 83 -16 110 -27 163 -35 144 -22 -16 11 -80 32
-170 55 -71 19 -25 20 60 2 130 -28 128 -28 80 -5 -25 11 -81 31 -125 44 -94
28 -90 30 22 11z m-110 -62 c-3 -3 -12 -4 -19 -1 -8 3 -5 6 6 6 11 1 17 -2 13
-5z m2493 -294 c6 -11 8 -20 6 -20 -3 0 -10 9 -16 20 -6 11 -8 20 -6 20 3 0
10 -9 16 -20z m-2833 4 c-3 -3 -12 -4 -19 -1 -8 3 -5 6 6 6 11 1 17 -2 13 -5z
m107 -229 c120 -31 248 -76 381 -135 22 -10 61 -27 87 -38 114 -49 290 -195
352 -291 49 -77 69 -111 63 -111 -3 0 -31 39 -62 86 -58 86 -100 125 -210 198
-33 22 -78 52 -100 66 -22 15 -55 35 -73 44 -65 34 -40 9 55 -55 145 -96 191
-135 228 -194 19 -30 39 -57 45 -60 20 -12 121 -156 150 -214 38 -74 39 -93 1
-25 -34 62 -52 88 -154 225 -82 111 -104 130 -306 267 -127 86 -249 146 -411
203 -139 49 -155 61 -46 34z m2325 -295 c66 -102 141 -218 168 -259 26 -41 56
-87 66 -103 36 -55 7 -27 -46 45 -44 60 -316 488 -341 537 -23 46 49 -58 153
-220z m-2137 126 c192 -69 387 -184 483 -283 64 -68 56 -75 -13 -12 -109 101
-285 203 -507 295 -104 43 -82 43 37 0z m6018 -113 c0 -5 -14 -23 -31 -41 -23
-25 -34 -31 -43 -22 -8 8 -2 19 23 40 33 30 51 37 51 23z m50 -2 c0 -5 -12
-30 -27 -55 -16 -26 -33 -56 -38 -66 -13 -22 -68 -103 -75 -110 -3 -3 -25 -30
-50 -60 -24 -30 -66 -77 -91 -105 -26 -27 -58 -63 -71 -80 -13 -16 -44 -52
-71 -80 -36 -38 -46 -55 -42 -72 3 -13 1 -23 -5 -23 -6 0 -8 5 -5 10 4 6 -5
10 -19 10 -30 0 -33 13 -8 32 10 7 36 36 58 63 44 55 77 93 142 164 23 25 42
49 42 53 0 5 7 8 15 8 8 0 15 7 15 15 0 8 9 20 20 27 11 7 20 18 20 25 0 7 7
13 16 13 8 0 12 5 9 11 -4 6 7 28 24 49 17 21 31 41 31 45 0 3 13 19 30 35 16
15 36 45 44 64 13 32 36 49 36 27z m-130 -24 c0 -8 -3 -17 -7 -20 -9 -9 -34
13 -27 24 8 14 34 11 34 -4z m-5771 -95 c141 -61 260 -150 344 -257 22 -28 9
-19 -45 31 -91 86 -170 141 -303 211 -55 29 -97 53 -93 53 4 0 48 -17 97 -38z
m875 -167 c19 -38 42 -99 51 -135 21 -78 30 -292 17 -370 l-10 -55 -1 85 c-3
208 -42 372 -126 540 -25 49 -45 92 -45 96 0 19 85 -101 114 -161z m-59 -52
c15 -32 33 -91 41 -132 17 -90 30 -323 16 -301 -5 8 -12 60 -15 115 -6 103
-36 260 -62 328 -8 20 -15 40 -15 42 0 15 11 -1 35 -52z m4909 25 c-49 -83
-139 -203 -284 -379 -77 -93 -370 -381 -490 -480 -179 -149 -512 -389 -539
-389 -21 0 -61 48 -61 74 0 20 9 29 43 44 48 21 320 211 428 299 40 32 86 69
103 83 74 58 257 224 330 299 44 44 83 78 88 75 4 -3 8 4 8 15 0 27 15 34 30
16 11 -13 -7 -36 -124 -151 -75 -75 -154 -150 -176 -167 -271 -220 -360 -289
-509 -394 -96 -67 -179 -129 -183 -138 -53 -94 431 244 703 491 41 38 91 83
110 100 85 78 182 186 319 360 25 31 52 63 60 72 28 30 130 165 130 173 0 5 5
9 11 9 5 0 7 -6 3 -12z m-3848 -606 c40 -143 69 -222 110 -304 30 -60 57 -108
60 -105 2 2 0 17 -6 33 -12 31 -51 207 -47 211 2 1 16 -28 32 -65 30 -68 82
-163 70 -127 -7 23 -45 158 -45 162 0 2 4 3 9 3 5 0 34 -52 65 -115 32 -63 59
-115 61 -115 7 0 -45 130 -83 208 -43 85 -87 200 -80 207 2 2 19 -30 37 -73
18 -42 46 -96 62 -118 16 -23 54 -93 84 -155 30 -62 58 -115 60 -118 14 -13
-52 147 -102 249 -49 100 -68 148 -98 235 -3 11 20 -29 52 -90 32 -60 80 -143
106 -183 26 -40 53 -87 61 -105 8 -17 15 -27 15 -20 1 18 -35 98 -79 172 -34
57 -120 268 -137 336 -3 11 29 -50 70 -135 61 -128 138 -264 163 -289 11 -11
-13 38 -68 139 -34 63 -66 141 -81 195 -13 50 -32 108 -42 130 -16 37 -13 35
50 -33 86 -92 250 -236 385 -337 58 -43 123 -94 144 -112 46 -39 64 -41 100
-12 15 12 29 19 32 16 6 -6 -131 -110 -180 -136 l-40 -20 -17 28 c-17 28 -39
48 -39 36 0 -4 9 -20 21 -36 25 -35 7 -39 -30 -6 l-26 22 23 -26 23 -26 -36
-19 c-58 -30 -208 -153 -242 -198 -17 -22 -46 -77 -64 -121 -39 -95 -58 -116
-130 -142 -57 -21 -162 -36 -153 -21 3 4 12 8 20 8 16 0 166 61 162 66 -2 1
-46 -9 -98 -22 -58 -16 -132 -27 -190 -29 -87 -4 -91 -3 -40 6 98 18 178 41
197 55 17 14 17 15 -2 6 -38 -18 -180 -30 -260 -23 l-80 6 100 7 c87 6 214 33
203 43 -1 2 -23 -1 -48 -5 -25 -5 -97 -9 -160 -8 l-115 1 80 14 c166 29 168
31 28 32 -170 1 -199 13 -68 26 l100 11 -90 8 c-49 5 -126 14 -170 21 l-80 13
90 2 c50 1 110 5 135 9 39 6 31 8 -65 15 -194 14 -226 23 -91 25 66 0 117 3
115 6 -3 2 -61 12 -129 20 -69 9 -154 22 -190 30 -61 12 -55 13 115 9 99 -2
173 -2 165 1 -8 2 -50 9 -93 16 -42 6 -75 14 -72 17 3 4 40 9 83 13 67 5 57 6
-73 9 l-150 2 100 14 c55 7 119 13 142 13 23 1 45 6 48 12 4 6 1 10 -6 8 -8
-1 -77 0 -154 1 l-140 2 163 13 c90 7 165 15 168 17 2 3 -35 8 -83 13 -49 4
-119 10 -158 14 l-70 6 113 14 c61 8 112 17 112 21 0 3 -5 11 -11 17 -10 10
-27 97 -59 293 -6 36 -13 74 -16 85 -4 13 -3 17 4 10 5 -5 17 -37 27 -70 9
-33 34 -105 55 -160 21 -55 46 -127 56 -160 28 -99 26 -47 -2 61 -65 242 -84
321 -84 353 0 51 7 35 41 -84 17 -59 49 -144 70 -188 22 -45 38 -74 35 -64 -4
10 -7 42 -7 70 -2 49 -2 50 -9 17 l-7 -35 -2 38 c0 20 -5 37 -11 37 -5 0 -10
9 -10 21 0 11 -9 64 -19 117 -43 219 -36 265 10 63 24 -105 61 -207 80 -221 3
-3 10 -16 14 -30 4 -14 16 -43 25 -65 10 -22 28 -66 41 -97 38 -97 31 -59 -15
83 -70 214 -87 286 -121 484 -13 81 12 18 39 -95 46 -194 66 -250 132 -385 53
-107 79 -142 44 -60 -4 11 -14 41 -20 67 -7 26 -16 45 -21 42 -5 -3 -9 9 -9
26 0 18 -4 29 -10 25 -5 -3 -10 4 -10 16 0 17 -42 219 -96 459 -3 16 -2 22 4
15 12 -12 37 -96 92 -310 43 -167 91 -289 98 -248 2 12 -2 31 -7 42 -6 11 -11
35 -11 53 0 38 -26 154 -81 360 -21 81 -39 155 -38 165 1 22 82 -214 110 -321
39 -153 67 -224 139 -353 27 -48 34 -51 20 -7 -39 117 -93 295 -115 379 -15
55 -42 149 -61 209 -19 60 -34 114 -33 120 1 21 60 -160 115 -352z m-460 -220
c22 -81 45 -156 49 -166 8 -18 5 -19 -31 -11 -21 4 -77 10 -124 14 -76 6 -81
8 -48 15 21 4 56 6 79 4 l42 -4 -6 121 c-4 66 -9 136 -13 155 -15 80 13 9 52
-128z m-87 -8 c11 -54 18 -100 18 -101 -1 -1 -15 1 -30 4 -19 4 -26 10 -23 20
3 8 6 53 6 100 0 48 2 84 5 81 3 -3 14 -50 24 -104z m2009 62 c67 -34 102 -65
174 -155 34 -42 88 -104 120 -139 106 -115 205 -246 304 -402 110 -174 134
-229 133 -298 l0 -47 -13 45 c-11 41 -43 95 -96 160 l-20 25 6 -35 c3 -19 7
-42 10 -50 2 -8 -4 -4 -14 9 -9 14 -25 34 -35 45 -19 23 -18 19 52 -138 35
-78 39 -97 10 -46 l-20 35 6 -30 c4 -22 3 -26 -5 -15 -5 8 -10 21 -10 29 0 8
-40 98 -89 200 -49 102 -96 211 -105 241 -19 67 -38 95 -77 115 -29 15 -159
37 -169 28 -2 -2 -7 -49 -10 -104 -4 -81 -3 -96 8 -82 6 9 12 25 12 34 0 10 4
20 10 24 5 3 10 -23 12 -62 3 -67 4 -67 12 -25 13 63 26 51 27 -25 1 -56 2
-62 9 -35 11 48 20 51 20 8 0 -22 4 -35 10 -31 14 9 12 -36 -4 -81 -13 -38
-71 -139 -96 -169 -22 -27 6 -16 32 13 36 38 66 101 88 185 14 54 18 64 19 39
1 -46 -53 -179 -93 -230 -38 -47 -65 -71 -111 -95 -16 -9 -23 -16 -15 -17 8 0
44 19 79 42 45 29 74 58 102 101 47 72 50 66 8 -13 -35 -67 -98 -131 -154
-159 -22 -11 -34 -20 -26 -21 35 -1 141 63 189 114 59 62 65 61 23 -2 -30 -45
-77 -89 -121 -112 -14 -7 -20 -15 -13 -17 16 -6 124 68 157 107 37 44 32 22
-7 -36 -18 -27 -56 -64 -83 -83 -31 -21 -40 -31 -24 -26 47 14 141 68 161 93
10 14 19 20 19 15 0 -23 -78 -98 -124 -119 -67 -31 -48 -30 43 1 41 14 75 24
78 22 5 -6 -84 -57 -147 -86 -36 -16 -39 -19 -15 -15 17 3 37 8 45 11 57 22
115 41 117 39 4 -4 -77 -59 -119 -81 -61 -31 -35 -29 42 5 40 16 75 29 77 26
8 -8 -99 -78 -149 -97 l-53 -19 52 5 c29 3 70 12 93 20 58 21 49 8 -17 -22
-71 -33 -174 -41 -251 -20 -47 13 -52 13 -39 0 20 -20 79 -32 162 -34 93 -2
41 -16 -65 -18 -64 -1 -84 3 -137 28 -66 32 -76 21 -20 -22 44 -32 88 -48 155
-57 l57 -7 -61 -2 c-76 -1 -145 19 -201 60 -57 41 -67 29 -18 -21 45 -46 113
-78 193 -89 l57 -9 -53 -1 c-81 -2 -206 46 -269 102 -38 34 -37 12 1 -26 44
-44 130 -85 215 -102 63 -12 64 -13 22 -14 -61 -1 -152 24 -246 69 -44 21 -81
37 -83 36 -5 -5 151 -108 186 -123 19 -8 54 -19 76 -24 37 -8 36 -8 -18 -4
-63 4 -131 33 -218 91 -28 19 -55 33 -61 31 -15 -5 90 -94 157 -132 43 -25 52
-34 31 -29 -54 12 -138 54 -193 95 -29 23 -56 39 -59 36 -2 -3 28 -39 67 -81
40 -42 69 -76 65 -76 -13 0 -131 98 -159 132 l-26 33 15 -39 c8 -21 15 -41 15
-43 0 -3 -20 13 -45 36 -24 22 -48 41 -52 41 -5 -1 4 -11 20 -23 73 -60 9 -27
-198 103 -82 51 -174 147 -205 214 -6 12 -1 9 12 -9 60 -78 140 -151 208 -191
94 -55 112 -57 31 -3 -70 47 -118 100 -163 179 -17 30 -37 66 -46 80 -10 17
-7 16 9 -5 36 -46 152 -166 171 -176 10 -5 -5 20 -33 57 -27 36 -61 89 -74
117 -15 30 -18 42 -8 27 47 -64 106 -131 135 -152 32 -22 32 -22 -7 24 -31 36
-135 208 -113 188 3 -3 33 -39 66 -81 33 -42 75 -87 94 -99 l33 -24 -21 25
c-12 13 -36 51 -54 84 -18 33 -41 75 -52 93 -28 47 -16 50 15 5 27 -39 126
-140 112 -113 -5 8 -24 36 -42 62 -44 63 -42 71 7 23 22 -21 42 -37 44 -34 3
3 -19 37 -48 76 -30 40 -57 78 -62 85 -8 14 88 -72 124 -112 l23 -25 -16 39
c-9 22 -26 54 -39 70 -42 57 -40 61 7 19 59 -54 74 -56 22 -3 -21 22 -34 40
-28 40 7 0 14 -4 18 -9 3 -5 24 -24 48 -43 l42 -33 -18 30 c-10 17 -44 54 -75
83 l-57 54 79 -53 c75 -49 78 -50 57 -20 -12 17 -49 54 -81 83 -33 29 -58 53
-56 55 3 3 124 -69 176 -105 38 -26 -42 70 -86 103 -57 43 -30 41 41 -3 36
-23 65 -38 65 -34 0 5 -33 37 -74 73 -41 35 -73 66 -71 68 2 2 30 -14 62 -35
90 -61 92 -61 23 10 -36 37 -81 76 -100 87 -26 15 -29 18 -10 13 36 -9 100
-42 139 -71 54 -41 23 4 -49 71 -34 31 -57 56 -53 56 5 0 13 -4 19 -9 12 -13
136 -82 139 -79 2 2 -28 28 -65 58 -38 30 -67 56 -65 58 1 2 28 -11 59 -28 68
-39 67 -17 -2 36 -25 18 -42 34 -38 34 14 0 51 -23 80 -49 l30 -26 -17 28
c-22 34 -8 35 23 2 45 -48 31 -16 -19 45 -28 33 -51 63 -51 66 0 3 20 -10 45
-28 25 -18 56 -40 68 -48 l22 -14 -20 24 c-10 14 -37 44 -59 68 -43 45 -41 54
2 23 15 -10 38 -22 51 -26 23 -7 22 -4 -12 36 -55 63 -50 72 15 27 40 -28 43
-22 9 21 -36 45 -39 56 -10 41 35 -19 42 -6 15 27 -33 39 -33 50 0 28 38 -24
41 -11 6 25 l-30 30 24 0 c28 0 31 12 7 31 -14 13 -13 15 13 19 l29 5 -23 23
c-12 12 -18 22 -14 22 4 0 23 25 41 55 18 30 36 55 38 55 3 0 24 -17 48 -37
41 -37 225 -129 225 -114 0 13 -30 36 -125 94 -49 31 -96 66 -104 78 -12 21
-11 25 10 42 31 25 98 18 167 -17z m619 9 c47 -14 113 -69 113 -95 0 -4 2 -17
5 -27 3 -10 -3 0 -14 23 -13 28 -30 46 -56 58 -45 22 -59 14 -16 -9 38 -19 38
-21 4 -20 -34 0 -51 -14 -45 -37 4 -16 -27 -30 -98 -41 l-25 -3 30 -13 c17 -7
82 -24 144 -37 63 -14 134 -33 157 -44 50 -21 90 -76 99 -135 l6 -40 -15 38
c-14 39 -52 87 -68 87 -4 0 3 -18 17 -40 31 -48 33 -62 4 -26 -24 31 -36 28
-19 -4 10 -18 9 -21 0 -15 -10 6 -11 1 -7 -17 6 -23 4 -25 -21 -22 -15 2 -19
1 -9 -2 9 -3 17 -10 17 -15 0 -6 -8 -8 -17 -6 -82 22 -100 16 -25 -8 l47 -15
-45 5 c-57 6 -204 53 -170 54 14 0 42 -3 63 -8 64 -15 40 4 -40 32 -76 26 -77
27 -28 21 28 -3 59 -8 70 -11 11 -3 17 -2 13 2 -4 4 -43 18 -85 31 l-78 23 60
-5 c50 -4 56 -3 35 7 -67 30 -103 49 -85 45 71 -17 72 -13 5 17 -90 41 -239
123 -259 142 -11 11 6 9 74 -6 49 -10 90 -17 92 -15 2 2 -37 18 -87 36 -50 18
-89 34 -87 36 2 2 26 0 53 -5 60 -11 68 -7 17 9 -21 7 -47 18 -58 24 -18 9
-17 11 15 17 l35 6 -35 2 c-29 2 -32 4 -15 11 35 15 276 12 332 -5z m-2724
-71 c4 -37 3 -41 -13 -37 -10 3 -17 10 -15 16 2 7 6 25 10 41 8 36 11 32 18
-20z m1310 -387 c-86 -64 -140 -139 -179 -249 l-13 -38 57 -1 57 -2 -60 -12
c-33 -7 -62 -14 -65 -15 -3 -2 31 -8 75 -15 l80 -12 -70 -2 c-38 -1 -83 -8
-100 -15 l-30 -13 53 -7 c95 -12 98 -22 7 -24 -58 -1 -94 -7 -108 -17 -21 -14
-19 -15 23 -16 25 -1 56 -5 70 -9 19 -6 9 -9 -40 -10 -36 -1 -76 -5 -90 -10
-25 -7 -24 -9 20 -23 8 -3 -9 -6 -37 -6 -50 -1 -68 -12 -40 -25 6 -3 2 -3 -10
0 -12 3 -36 -2 -52 -10 -61 -32 -54 -15 12 29 37 25 98 75 136 110 56 53 73
77 91 128 32 86 64 148 97 187 34 41 140 120 160 120 8 0 -11 -20 -44 -43z
m1681 -49 c111 -35 157 -93 155 -197 -1 -39 -4 -35 -13 19 -4 19 -15 46 -26
60 -16 20 -19 21 -13 5 l6 -20 -22 20 c-13 11 -24 19 -25 17 -3 -7 -139 50
-221 93 l-70 37 80 -6 c44 -4 111 -16 149 -28z m-71 -58 c47 -22 89 -40 94
-40 6 0 18 -10 29 -22 10 -13 12 -18 4 -12 -8 6 -46 24 -85 40 -70 28 -135 62
-135 70 0 7 5 5 93 -36z m103 -96 c34 -23 30 -25 -14 -10 -45 16 -142 64 -142
71 0 7 129 -44 156 -61z m-3011 -78 c199 -84 425 -136 593 -136 52 0 131 12
235 34 33 8 17 -5 -40 -32 -55 -26 -65 -27 -203 -26 -156 1 -270 20 -418 69
-83 28 -267 113 -304 141 -27 20 -29 20 137 -50z m2975 49 c19 -7 28 -13 20
-13 -8 0 -31 6 -50 13 -19 7 -28 13 -20 13 8 0 31 -6 50 -13z m61 -206 c9 -4
22 -16 30 -26 12 -15 9 -14 -21 3 -19 11 -46 26 -60 32 -24 11 -24 11 5 5 17
-3 37 -9 46 -14z m-2398 -110 c58 -30 170 -115 242 -184 l60 -57 -65 50 c-172
130 -253 181 -335 209 l-40 13 48 -5 c26 -2 66 -14 90 -26z m864 -556 c47 -26
104 -65 127 -86 l41 -38 -50 34 c-27 19 -86 55 -130 80 -44 25 -96 60 -115 77
l-35 30 38 -24 c20 -13 76 -46 124 -73z m816 50 c-7 -2 -19 -2 -25 0 -7 3 -2
5 12 5 14 0 19 -2 13 -5z"/>
<path d="M6814 8789 c-3 -6 -2 -15 4 -21 13 -13 32 -2 32 18 0 16 -26 19 -36
3z"/>
<path d="M3490 8525 c0 -8 5 -15 10 -15 6 0 10 7 10 15 0 8 -4 15 -10 15 -5 0
-10 -7 -10 -15z"/>
<path d="M2690 7530 c0 -5 5 -10 11 -10 5 0 7 5 4 10 -3 6 -8 10 -11 10 -2 0
-4 -4 -4 -10z"/>
<path d="M2390 7070 c0 -5 5 -10 10 -10 6 0 10 5 10 10 0 6 -4 10 -10 10 -5 0
-10 -4 -10 -10z"/>
<path d="M2370 6970 c0 -5 5 -10 10 -10 6 0 10 5 10 10 0 6 -4 10 -10 10 -5 0
-10 -4 -10 -10z"/>
<path d="M2966 6741 c-4 -7 -5 -15 -2 -18 9 -9 19 4 14 18 -4 11 -6 11 -12 0z"/>
<path d="M2436 6635 c-17 -18 -13 -35 9 -35 16 0 26 23 16 39 -6 10 -12 9 -25
-4z"/>
<path d="M1985 6281 c-3 -5 -1 -12 5 -16 5 -3 10 1 10 9 0 18 -6 21 -15 7z"/>
<path d="M1855 6260 c-3 -5 -1 -10 4 -10 6 0 11 5 11 10 0 6 -2 10 -4 10 -3 0
-8 -4 -11 -10z"/>
<path d="M2090 6140 c0 -5 5 -10 11 -10 5 0 7 5 4 10 -3 6 -8 10 -11 10 -2 0
-4 -4 -4 -10z"/>
<path d="M8293 6093 c-17 -6 -17 -40 0 -46 20 -8 39 8 35 28 -3 20 -16 26 -35
18z"/>
<path d="M8510 6000 c0 -6 7 -10 15 -10 8 0 15 2 15 4 0 2 -7 6 -15 10 -8 3
-15 1 -15 -4z"/>
<path d="M1790 5886 c0 -2 9 -6 20 -9 11 -3 20 -1 20 4 0 5 -9 9 -20 9 -11 0
-20 -2 -20 -4z"/>
<path d="M8173 5845 c-3 -9 -3 -18 0 -22 10 -10 37 6 37 22 0 20 -29 20 -37 0z"/>
<path d="M1785 5800 c3 -5 14 -10 23 -10 15 0 15 2 2 10 -20 13 -33 13 -25 0z"/>
<path d="M2691 5781 c-15 -27 10 -47 38 -31 24 12 26 21 9 38 -17 17 -36 15
-47 -7z"/>
<path d="M1920 5770 c0 -5 4 -10 9 -10 6 0 13 5 16 10 3 6 -1 10 -9 10 -9 0
-16 -4 -16 -10z"/>
<path d="M9025 5750 c-18 -8 -17 -9 8 -9 15 -1 27 4 27 9 0 12 -8 12 -35 0z"/>
<path d="M1995 5721 c-6 -11 9 -23 19 -14 9 9 7 23 -3 23 -6 0 -12 -4 -16 -9z"/>
<path d="M8990 5600 c-24 -19 -24 -19 -2 -13 12 3 25 10 28 15 11 18 -1 17
-26 -2z"/>
<path d="M8376 5571 c-4 -5 -2 -12 3 -15 5 -4 12 -2 15 3 4 5 2 12 -3 15 -5 4
-12 2 -15 -3z"/>
<path d="M1868 5513 c6 -2 18 -2 25 0 6 3 1 5 -13 5 -14 0 -19 -2 -12 -5z"/>
<path d="M1950 5486 c0 -9 7 -12 20 -9 11 3 20 9 20 14 0 5 -9 9 -20 9 -11 0
-20 -6 -20 -14z"/>
<path d="M1945 5450 c3 -5 15 -10 26 -10 11 0 17 5 14 10 -3 6 -15 10 -26 10
-11 0 -17 -4 -14 -10z"/>
<path d="M2561 5451 c-15 -10 -8 -41 9 -41 15 0 25 29 14 40 -5 5 -15 5 -23 1z"/>
<path d="M1968 5403 c6 -2 18 -2 25 0 6 3 1 5 -13 5 -14 0 -19 -2 -12 -5z"/>
<path d="M2715 5277 c-21 -16 -13 -37 15 -37 19 0 34 25 24 41 -7 12 -17 11
-39 -4z"/>
<path d="M2307 5135 c-4 -8 -2 -17 3 -20 6 -4 10 -4 10 -1 0 2 3 11 6 20 3 9
2 16 -4 16 -5 0 -12 -7 -15 -15z"/>
<path d="M8878 5143 c7 -3 16 -2 19 1 4 3 -2 6 -13 5 -11 0 -14 -3 -6 -6z"/>
<path d="M8335 4960 c-16 -7 -17 -9 -3 -9 9 -1 20 4 23 9 7 11 7 11 -20 0z"/>
<path d="M2257 4854 c-8 -8 1 -24 14 -24 5 0 9 7 9 15 0 15 -12 20 -23 9z"/>
<path d="M8795 4560 c-3 -5 1 -10 9 -10 9 0 16 5 16 10 0 6 -4 10 -9 10 -6 0
-13 -4 -16 -10z"/>
<path d="M8310 4460 c0 -5 5 -10 10 -10 6 0 10 5 10 10 0 6 -4 10 -10 10 -5 0
-10 -4 -10 -10z"/>
<path d="M8492 4448 c-14 -18 -43 -78 -38 -78 2 0 16 20 29 45 25 45 29 57 9
33z"/>
<path d="M8690 4440 c0 -5 4 -10 9 -10 6 0 13 5 16 10 3 6 -1 10 -9 10 -9 0
-16 -4 -16 -10z"/>
<path d="M8649 4303 c-13 -15 -12 -15 9 -4 23 12 28 21 13 21 -5 0 -15 -7 -22
-17z"/>
<path d="M8551 4274 c-10 -22 -9 -25 6 -22 10 2 19 13 21 26 5 30 -12 28 -27
-4z"/>
<path d="M8340 4261 c-7 -14 -7 -22 1 -27 14 -8 43 21 35 35 -11 17 -24 13
-36 -8z"/>
<path d="M8625 4210 c-3 -5 -1 -10 4 -10 6 0 11 5 11 10 0 6 -2 10 -4 10 -3 0
-8 -4 -11 -10z"/>
<path d="M8378 4053 c-8 -10 -30 -40 -48 -68 -18 -27 -45 -64 -59 -82 -57 -71
-70 -91 -64 -97 12 -12 33 -6 33 10 0 13 77 134 149 235 17 24 9 25 -11 2z"/>
<path d="M8490 4056 c-10 -13 -10 -19 0 -32 12 -14 15 -14 29 0 14 15 14 17 0
32 -14 14 -17 14 -29 0z"/>
<path d="M8075 3990 c-3 -5 -1 -10 4 -10 6 0 11 5 11 10 0 6 -2 10 -4 10 -3 0
-8 -4 -11 -10z"/>
<path d="M8388 3943 c-9 -10 -21 -29 -28 -43 -10 -21 -7 -20 19 8 17 18 31 37
31 43 0 13 -5 11 -22 -8z"/>
<path d="M8463 3925 c-3 -9 -3 -19 1 -22 7 -7 36 16 36 28 0 15 -30 10 -37 -6z"/>
<path d="M8540 3921 c-15 -4 -20 -10 -13 -14 11 -7 63 8 63 18 0 6 -18 5 -50
-4z"/>
<path d="M8181 3897 c-13 -21 -12 -21 5 -5 10 10 16 20 13 22 -3 3 -11 -5 -18
-17z"/>
<path d="M8750 3888 c-19 -4 -48 -10 -65 -12 -82 -12 -157 -37 -163 -54 -2 -7
1 -12 7 -12 6 0 11 4 11 9 0 8 26 12 155 27 77 8 92 13 98 29 8 20 -2 23 -43
13z"/>
<path d="M8141 3848 c-14 -23 -14 -23 8 -4 22 20 25 26 13 26 -4 0 -13 -10
-21 -22z"/>
<path d="M8510 3859 c0 -5 5 -7 10 -4 6 3 10 8 10 11 0 2 -4 4 -10 4 -5 0 -10
-5 -10 -11z"/>
<path d="M8373 3786 c-17 -14 -33 -23 -37 -19 -3 3 -6 1 -6 -5 0 -20 16 -21
32 -3 9 11 24 24 34 29 11 6 16 13 13 17 -4 3 -20 -5 -36 -19z"/>
<path d="M8441 3775 c-7 -19 -18 -35 -24 -35 -7 0 -53 -55 -104 -123 -51 -67
-102 -133 -114 -147 -57 -63 -108 -121 -149 -170 -75 -88 -111 -120 -134 -120
-32 0 -39 -11 -19 -32 23 -26 36 -23 63 14 28 38 69 86 88 102 68 59 352 411
352 437 0 5 7 9 15 9 8 0 15 6 15 14 0 7 12 25 26 39 14 14 23 31 19 37 -11
18 -21 11 -34 -25z"/>
<path d="M8079 3753 c-13 -16 -12 -17 4 -4 16 13 21 21 13 21 -2 0 -10 -8 -17
-17z"/>
<path d="M8185 3750 c3 -5 8 -10 11 -10 2 0 4 5 4 10 0 6 -5 10 -11 10 -5 0
-7 -4 -4 -10z"/>
<path d="M8229 3743 c-10 -2 -20 -12 -23 -21 -3 -9 -9 -24 -13 -32 -3 -8 8 0
26 19 34 36 35 39 10 34z"/>
<path d="M8300 3705 c-12 -19 -25 -34 -29 -32 -12 3 -135 -152 -127 -160 3 -4
8 -4 9 -2 2 2 24 29 48 59 62 77 90 109 118 135 13 13 19 25 13 29 -6 3 -20
-10 -32 -29z"/>
<path d="M8472 3718 c-7 -7 -12 -16 -12 -21 0 -5 -39 -59 -87 -119 -49 -61
-88 -113 -88 -117 0 -4 -48 -61 -106 -126 -106 -120 -218 -231 -338 -335 -35
-30 -69 -61 -77 -68 -29 -27 -119 -82 -136 -82 -10 0 -18 -6 -18 -14 0 -26 21
-29 51 -7 15 11 31 21 34 21 7 0 142 108 190 152 166 152 303 304 442 488 22
30 62 77 87 103 25 26 46 52 46 58 0 5 12 14 26 19 18 7 24 15 20 26 -3 9 -6
20 -6 25 0 13 -14 11 -28 -3z"/>
<path d="M8009 3673 c-13 -16 -12 -17 4 -4 9 7 17 15 17 17 0 8 -8 3 -21 -13z"/>
<path d="M8144 3638 l-19 -23 23 19 c12 11 22 21 22 23 0 8 -8 2 -26 -19z"/>
<path d="M7971 3628 c-14 -23 -14 -23 8 -4 22 20 25 26 13 26 -4 0 -13 -10
-21 -22z"/>
<path d="M7464 3565 c-4 -9 -2 -21 4 -27 15 -15 44 -1 40 19 -4 23 -36 29 -44
8z"/>
<path d="M7866 3541 c-4 -7 -5 -15 -2 -18 9 -9 19 4 14 18 -4 11 -6 11 -12 0z"/>
<path d="M7890 3415 c-35 -36 -60 -65 -54 -65 10 0 51 41 108 108 37 43 10 21
-54 -43z"/>
<path d="M7610 3330 c-46 -43 -82 -82 -79 -85 4 -3 46 33 95 79 49 47 85 85
79 85 -5 0 -48 -36 -95 -79z"/>
<path d="M7967 3383 c-4 -3 -7 -11 -7 -17 0 -6 5 -5 12 2 6 6 9 14 7 17 -3 3
-9 2 -12 -2z"/>
<path d="M7470 3310 c-8 -5 -12 -12 -9 -15 4 -3 12 1 19 10 14 17 11 19 -10 5z"/>
<path d="M7825 3299 c-4 -6 -5 -13 -2 -16 7 -7 27 6 27 18 0 12 -17 12 -25 -2z"/>
<path d="M6810 3280 c0 -5 5 -10 10 -10 6 0 10 5 10 10 0 6 -4 10 -10 10 -5 0
-10 -4 -10 -10z"/>
<path d="M7615 3193 c-44 -42 -67 -68 -52 -58 36 21 143 122 137 128 -3 3 -41
-29 -85 -70z"/>
<path d="M7446 3201 c-4 -7 -5 -15 -2 -18 9 -9 19 4 14 18 -4 11 -6 11 -12 0z"/>
<path d="M7459 3133 c-13 -15 -12 -15 9 -4 23 12 28 21 13 21 -5 0 -15 -7 -22
-17z"/>
<path d="M7421 3106 c-6 -7 -47 -40 -91 -72 -44 -32 -80 -62 -80 -66 0 -10 17
-10 22 0 2 4 32 29 68 56 36 27 73 60 83 72 19 25 17 33 -2 10z"/>
<path d="M7841 3079 c-19 -16 -33 -30 -30 -33 2 -2 19 9 38 25 19 16 33 30 30
33 -2 2 -19 -9 -38 -25z"/>
<path d="M7606 3071 c-4 -7 -5 -15 -2 -18 9 -9 19 4 14 18 -4 11 -6 11 -12 0z"/>
<path d="M6750 3060 c0 -5 5 -10 11 -10 5 0 7 5 4 10 -3 6 -8 10 -11 10 -2 0
-4 -4 -4 -10z"/>
<path d="M7331 2963 c-30 -20 -49 -39 -43 -41 10 -3 61 31 107 70 26 22 -16 4
-64 -29z"/>
<path d="M7530 2985 c-8 -9 -8 -15 -2 -15 12 0 26 19 19 26 -2 2 -10 -2 -17
-11z"/>
<path d="M7115 2980 c-3 -5 -2 -10 4 -10 5 0 13 5 16 10 3 6 2 10 -4 10 -5 0
-13 -4 -16 -10z"/>
<path d="M7076 2955 c-11 -8 -17 -17 -14 -20 2 -3 13 4 23 15 21 23 18 25 -9
5z"/>
<path d="M6885 2920 c-8 -13 15 -13 35 0 12 8 11 10 -7 10 -12 0 -25 -4 -28
-10z"/>
<path d="M6979 2899 c-19 -16 -20 -18 -4 -10 34 17 51 31 39 31 -7 0 -22 -9
-35 -21z"/>
<path d="M7416 2869 c-36 -29 -64 -54 -61 -57 3 -3 11 0 17 6 7 7 19 12 27 12
15 0 96 78 89 86 -3 2 -35 -19 -72 -47z"/>
<path d="M6805 2897 c-60 -19 -72 -28 -30 -21 22 3 50 7 62 8 26 1 39 22 14
22 -9 1 -29 -3 -46 -9z"/>
<path d="M6438 2893 c7 -3 16 -2 19 1 4 3 -2 6 -13 5 -11 0 -14 -3 -6 -6z"/>
<path d="M7090 2885 c0 -8 4 -15 9 -15 5 0 14 7 21 15 10 13 9 15 -9 15 -12 0
-21 -6 -21 -15z"/>
<path d="M7200 2890 c0 -5 7 -10 15 -10 8 0 15 5 15 10 0 6 -7 10 -15 10 -8 0
-15 -4 -15 -10z"/>
<path d="M7541 2880 c-30 -26 -14 -26 19 0 14 11 21 20 15 19 -5 0 -21 -9 -34
-19z"/>
<path d="M6350 2880 c-13 -9 -13 -10 0 -10 8 0 22 5 30 10 13 9 13 10 0 10 -8
0 -22 -5 -30 -10z"/>
<path d="M6907 2879 c-9 -5 -22 -7 -27 -4 -6 3 -10 1 -10 -6 0 -7 8 -9 23 -4
12 4 30 7 39 8 9 1 14 5 12 9 -7 10 -15 10 -37 -3z"/>
<path d="M7180 2860 c-9 -6 -10 -10 -3 -10 6 0 15 5 18 10 8 12 4 12 -15 0z"/>
<path d="M7055 2840 c-4 -6 -25 -20 -47 -31 -33 -17 -38 -23 -26 -30 11 -6 35
0 74 17 33 14 70 30 83 35 42 16 16 20 -29 4 -54 -19 -69 -19 -44 0 10 8 14
15 7 15 -6 0 -15 -5 -18 -10z"/>
<path d="M7277 2776 c-30 -21 -44 -37 -37 -41 6 -4 21 2 33 13 12 11 32 25 45
31 21 11 31 32 15 30 -5 0 -30 -15 -56 -33z"/>
<path d="M7410 2790 c-14 -11 -20 -20 -15 -19 13 0 50 28 44 33 -2 3 -15 -4
-29 -14z"/>
<path d="M7095 2768 c-69 -24 -72 -25 -59 -37 5 -4 44 6 89 25 89 37 68 45
-30 12z"/>
<path d="M7336 2762 c-2 -4 -26 -19 -53 -32 -26 -13 -81 -45 -122 -72 -40 -26
-78 -48 -83 -48 -5 0 -7 -4 -3 -10 8 -13 31 -3 119 57 43 30 101 65 127 79 27
13 49 27 49 29 0 8 -28 6 -34 -3z"/>
<path d="M7186 2746 c-75 -43 -126 -78 -126 -86 0 -6 29 8 65 31 36 22 72 38
80 35 16 -6 19 2 7 20 -5 9 -12 9 -26 0z"/>
<path d="M7474 2701 c-51 -31 -116 -74 -145 -97 -30 -22 -75 -56 -101 -74 -41
-29 -60 -50 -44 -50 11 0 85 47 136 86 30 22 101 71 158 108 57 36 100 71 97
76 -3 6 -7 10 -8 9 -1 -1 -43 -26 -93 -58z"/>
<path d="M7390 2716 c-19 -12 -50 -30 -69 -41 -18 -11 -50 -31 -70 -44 -20
-14 -58 -37 -86 -52 -37 -21 -45 -29 -33 -34 20 -8 56 10 166 85 95 66 137 99
131 104 -2 2 -20 -6 -39 -18z"/>
<path d="M5255 8202 c6 -5 60 -35 120 -67 61 -31 99 -48 85 -36 -42 34 -237
132 -205 103z"/>
<path d="M6837 7493 c-14 -13 -7 -42 8 -37 8 4 15 15 15 25 0 19 -11 25 -23
12z"/>
<path d="M6730 7450 c0 -5 5 -10 10 -10 6 0 10 5 10 10 0 6 -4 10 -10 10 -5 0
-10 -4 -10 -10z"/>
<path d="M6628 7423 c6 -2 18 -2 25 0 6 3 1 5 -13 5 -14 0 -19 -2 -12 -5z"/>
<path d="M6543 6713 c9 -2 25 -2 35 0 9 3 1 5 -18 5 -19 0 -27 -2 -17 -5z"/>
<path d="M6577 6103 c10 -18 52 -67 93 -109 41 -43 70 -79 64 -81 -6 -2 -20
-10 -30 -18 -17 -12 -14 -13 21 -3 22 7 42 13 44 14 2 2 -35 42 -82 91 -47 48
-95 99 -107 113 l-22 25 19 -32z"/>
<path d="M6980 5690 c14 -4 41 -8 60 -8 l35 0 -30 8 c-16 4 -43 8 -60 8 -29 0
-29 0 -5 -8z"/>
<path d="M7098 5693 c12 -2 32 -2 45 0 12 2 2 4 -23 4 -25 0 -35 -2 -22 -4z"/>
<path d="M7060 5660 c-34 -7 -33 -7 15 -10 28 -1 41 -4 30 -7 -102 -24 -245
-96 -245 -123 0 -13 51 -13 121 2 45 9 69 9 113 -2 44 -10 61 -10 84 -1 36 15
77 57 87 89 5 19 3 22 -19 22 -13 0 -32 3 -42 7 -15 5 -12 9 14 17 28 10 23
11 -46 12 -42 1 -93 -2 -112 -6z m103 -7 c-7 -2 -19 -2 -25 0 -7 3 -2 5 12 5
14 0 19 -2 13 -5z"/>
<path d="M6210 5516 c0 -2 7 -7 16 -10 8 -3 12 -2 9 4 -6 10 -25 14 -25 6z"/>
<path d="M6765 5410 c19 -8 133 -14 124 -6 -2 2 -35 6 -74 9 -42 3 -62 2 -50
-3z"/>
<path d="M6815 5372 c29 -13 93 -24 75 -13 -8 5 -33 12 -55 15 -27 4 -33 3
-20 -2z"/>
<path d="M4983 4388 c57 -137 178 -357 271 -493 57 -82 127 -193 156 -245 125
-225 161 -282 143 -232 -34 97 -162 333 -268 495 -180 275 -202 310 -262 425
-30 56 -56 102 -58 102 -2 0 6 -23 18 -52z"/>
<path d="M5211 3885 c18 -33 47 -82 65 -110 17 -27 46 -77 64 -110 18 -33 49
-89 69 -125 20 -36 52 -95 71 -132 19 -37 36 -65 37 -64 6 5 -47 136 -83 209
-44 86 -97 171 -182 292 -79 111 -83 115 -41 40z"/>
<path d="M5339 3573 c34 -69 100 -225 125 -297 4 -10 9 -17 11 -14 12 11 -61
204 -107 285 -66 116 -80 129 -29 26z"/>
<path d="M5361 3090 c0 -8 4 -22 9 -30 12 -18 12 -2 0 25 -6 13 -9 15 -9 5z"/>
<path d="M2867 4385 c81 -29 140 -55 328 -148 65 -31 21 6 -62 52 -81 46 -202
96 -281 117 -88 23 -82 15 15 -21z"/>
<path d="M3490 4113 c0 -4 9 -14 21 -21 18 -12 20 -11 17 5 -3 17 -38 32 -38
16z"/>
<path d="M3460 4066 c0 -3 9 -10 20 -16 11 -6 20 -8 20 -6 0 3 -9 10 -20 16
-11 6 -20 8 -20 6z"/>
<path d="M3350 4005 c14 -15 59 -54 100 -88 41 -33 94 -78 117 -100 24 -23 45
-38 48 -36 12 13 -110 129 -196 188 -58 39 -84 53 -69 36z"/>
<path d="M4120 3535 c0 -5 5 -17 10 -25 5 -8 10 -10 10 -5 0 6 -5 17 -10 25
-5 8 -10 11 -10 5z"/>
<path d="M5020 2927 c0 -15 81 -172 101 -197 22 -26 22 -26 -4 31 -21 46 -97
176 -97 166z"/>
<path d="M4685 2670 c3 -25 8 -65 11 -90 3 -25 9 -54 14 -65 4 -11 14 -35 21
-54 25 -67 18 -14 -16 119 -19 74 -33 115 -30 90z"/>
<path d="M4482 2580 c0 -14 2 -19 5 -12 2 6 2 18 0 25 -3 6 -5 1 -5 -13z"/>
<path d="M5406 2535 c4 -8 11 -15 16 -15 6 0 5 6 -2 15 -7 8 -14 15 -16 15 -2
0 -1 -7 2 -15z"/>
<path d="M4501 2519 c0 -13 4 -33 9 -44 7 -14 8 -8 3 20 -7 46 -13 59 -12 24z"/>
<path d="M5439 2472 c12 -17 31 -37 42 -42 32 -18 20 3 -24 40 l-41 35 23 -33z"/>
<path d="M5460 2496 c0 -2 7 -9 15 -16 13 -11 14 -10 9 4 -5 14 -24 23 -24 12z"/>
<path d="M4521 2434 c0 -11 3 -14 6 -6 3 7 2 16 -1 19 -3 4 -6 -2 -5 -13z"/>
<path d="M6060 2655 c0 -7 70 -41 100 -49 14 -4 0 7 -30 23 -54 30 -70 36 -70
26z"/>
<path d="M5960 2600 c0 -13 82 -90 113 -106 46 -25 25 -26 -32 -3 -28 12 -54
19 -58 15 -4 -3 9 -22 27 -41 35 -37 24 -49 -18 -19 -26 18 -28 7 -8 -41 17
-39 12 -44 -16 -18 -18 16 -17 14 1 -28 12 -24 21 -65 21 -91 0 -27 5 -48 10
-48 6 0 10 11 10 24 0 19 4 23 20 19 20 -5 33 -47 33 -105 0 -15 4 -25 9 -22
5 3 7 31 3 62 -4 44 -3 52 5 33 6 -13 11 -50 12 -83 l2 -59 38 38 38 37 1 -29
c1 -28 2 -27 14 11 7 22 21 56 31 75 l19 34 6 -70 c4 -44 6 -9 5 92 -1 160 -1
163 -26 186 -28 27 -260 149 -260 137z"/>
<path d="M6440 2280 c34 -11 60 -11 35 0 -11 5 -29 8 -40 8 -16 0 -15 -2 5 -8z"/>
<path d="M6307 2197 c-5 -32 -6 -61 -3 -64 9 -9 18 42 14 83 -3 36 -4 35 -11
-19z"/>
<path d="M5830 2035 c13 -14 26 -25 28 -25 3 0 -5 11 -18 25 -13 14 -26 25
-28 25 -3 0 5 -11 18 -25z"/>
<path d="M6690 1974 c1 -5 7 -20 15 -34 13 -24 14 -24 15 -4 0 12 -7 27 -15
34 -8 7 -15 9 -15 4z"/>
<path d="M6720 1901 c0 -6 4 -13 10 -16 6 -3 7 1 4 9 -7 18 -14 21 -14 7z"/>
<path d="M6380 1808 c-33 -59 -97 -126 -142 -149 -21 -11 -38 -22 -38 -24 0
-7 114 45 127 58 17 18 86 147 81 152 -2 3 -15 -14 -28 -37z"/>
<path d="M5995 1610 c-3 -5 1 -10 9 -10 9 0 16 5 16 10 0 6 -4 10 -9 10 -6 0
-13 -4 -16 -10z"/>
</g>
</svg>
